<?xml version="1.0" standalone="no"?>
<!DOCTYPE svg PUBLIC "-//W3C//DTD SVG 20010904//EN"
 "http://www.w3.org/TR/2001/REC-SVG-20010904/DTD/svg10.dtd">
<svg version="1.0" xmlns="http://www.w3.org/2000/svg"
 width="16.000000pt" height="16.000000pt" viewBox="0 0 16.000000 16.000000"
 preserveAspectRatio="xMidYMid meet">
<metadata>
Created by potrace 1.11, written by Peter Selinger 2001-2013
</metadata>
<g transform="translate(0.000000,16.000000) scale(0.006154,-0.006154)"
fill="#000000" stroke="none">
<path d="M870 1607 c0 -70 1 -72 29 -85 18 -8 57 -12 98 -10 l68 3 3 60 c2 34
-2 69 -9 82 -11 21 -19 23 -101 23 l-88 0 0 -73z"/>
<path d="M170 1262 l0 -379 23 -12 c14 -7 53 -11 102 -9 l80 3 2 135 c4 199
-13 180 158 180 132 0 145 2 155 19 13 26 13 77 -2 118 l-12 33 -161 1 c-88 0
-154 3 -147 6 7 3 12 23 12 52 0 26 5 52 12 59 8 8 59 12 164 12 129 0 153 2
158 16 10 26 7 91 -6 119 l-11 25 -264 0 -263 0 0 -378z"/>
<path d="M2067 1456 c-143 -40 -224 -176 -203 -339 15 -107 72 -184 175 -234
72 -35 210 -43 316 -19 98 23 115 37 115 89 0 54 -20 99 -40 93 -8 -3 -49 -17
-90 -32 -61 -21 -88 -25 -148 -22 -67 3 -77 6 -99 32 -13 16 -23 38 -21 50 3
20 8 21 208 26 l205 5 -1 75 c0 57 -6 85 -22 117 -57 109 -145 164 -271 170
-44 1 -96 -3 -124 -11z m205 -156 c10 -12 18 -33 18 -46 0 -24 0 -24 -119 -24
l-120 0 37 41 c46 51 65 60 122 55 30 -3 50 -11 62 -26z"/>
<path d="M870 1172 l0 -287 29 -13 c18 -8 57 -12 98 -10 l68 3 3 277 c3 336 9
318 -115 318 l-83 0 0 -288z"/>
<path d="M1154 1443 c4 -10 54 -140 112 -289 88 -225 110 -274 131 -283 27
-12 172 -15 190 -3 18 11 224 543 215 556 -3 6 -7 16 -7 21 0 6 -37 10 -90 10
l-90 0 -72 -200 c-40 -110 -72 -188 -73 -174 0 32 -102 317 -125 353 -16 25
-22 26 -107 26 -82 0 -90 -2 -84 -17z"/>
</g>
</svg>
